<svg id="Layer_1" data-name="Layer 1" xmlns="http://www.w3.org/2000/svg" viewBox="0 0 46.33333 46">
  <defs>
    <style>
      .cls-1 {
        fill: #e61f19;
      }

      .cls-2 {
        fill: #be1a20;
      }

      .cls-3 {
        fill: #fff;
        stroke: #fff;
        stroke-linejoin: round;
        stroke-width: 0.29388px;
      }
    </style>
  </defs>
  <title>thicker</title>
  <circle class="cls-1" cx="23.18005" cy="23.1639" r="20.80105" transform="translate(-8.06839 33.03385) rotate(-62.50896)"/>
  <path class="cls-2" d="M13.88111,41.80546A20.80308,20.80308,0,0,0,37.80456,8.35415L8.55049,37.92472A20.75156,20.75156,0,0,0,13.88111,41.80546Z"/>
  <path class="cls-3" d="M39.61675,5.92814l-1.38833.96027-.45408.84386L29.3911,16.26252c-.063.00836-.1414-.002-.20684.0033.01694-.34549-.21317-.42683-.49107-.42452-.07348-.45433-.20272-.53133-.652-.4127-.4.10559-.4694.09113-.60668-.28626a12.45894,12.45894,0,0,1-.43-1.39055,7.04953,7.04953,0,0,0-.74257-1.94432,6.57876,6.57876,0,0,0-1.73764-1.90753,7.25869,7.25869,0,0,0-3.28092-1.39688,24.218,24.218,0,0,0-6.3974.02029c-1.00986.10339-2.02181.20085-3.03024.238a2.26486,2.26486,0,0,1-2.09743-.90916,1.98625,1.98625,0,0,0,.57126,1.0367,1.32223,1.32223,0,0,0,.74681.39532c.71288.06814,1.43433.102,2.15661.1001L10.64674,35.81666l.18457-.18457-.21124.21278L37.61776,32.405c.025.50642.04955,1.01289.07975,1.51864a2.06208,2.06208,0,0,0,.11879.70116,1.66854,1.66854,0,0,0,.84536.89943,2.2529,2.2529,0,0,0,.82567.212,2.13432,2.13432,0,0,1-.8188-.766,1.21974,1.21974,0,0,1-.31821-.69253,12.86617,12.86617,0,0,1-.05962-1.97528,51.98242,51.98242,0,0,0,.09614-5.83153,8.66664,8.66664,0,0,0-1.855-5.25521A6.16573,6.16573,0,0,0,34.581,19.61417a13.53476,13.53476,0,0,0-2.08836-.67663c-.464-.133-.94524-.21856-1.40392-.32206a.52931.52931,0,0,1,.01127-.122c.24336-.40324.17946-.578-.247-.69418-.0473-.013-.11071-.06187-.11516-.10339-.03113-.294-.21322-.40379-.50306-.39906-.01347-.33251-.166-.5206-.585-.46825.02227-.04713.03657-.085.05307-.126l8.39056-8.62688.81084-.36133M28.51411,17.92481a.33863.33863,0,0,1,.25068.024c.06264.35314.07634.36276.4144.46506a.21016.21016,0,0,1,.11494.13216c.09328.31392.25062.40517.57995.31475.12044-.03311.2372-.091.3582-.11236a.30691.30691,0,0,1,.2372.034,5.38423,5.38423,0,0,0,1.82976,1.06282,14.48624,14.48624,0,0,1,1.40733.69968,6.37851,6.37851,0,0,1,.78289.62972,8.18286,8.18286,0,0,1,1.5595,1.841,7.77438,7.77438,0,0,1,1.2464,3.5877c.14145,1.43439.16923,2.88851.24523,4.33428l.04273.729-23.7028,2.97173.97824-1.01531.45565-2.12675.84778-.87171-.341,2.103.78575-.816.32509-2.07846,2.34162-2.40762L20.50644,26.158ZM14.36352,32.23468l-.51582,2.40784-1.9155.24017ZM11.59138,34.3314l.17495-1.80353,2.22706-.57709ZM19.13981,9.39126a9.68236,9.68236,0,0,1,2.60984.59513A8.39567,8.39567,0,0,1,24.339,11.60463a6.79794,6.79794,0,0,1,1.19977,1.384c.53919.85757.98693,1.776,1.48652,2.69349.02524-.03107.01248-.00456-.00819.00836a.47018.47018,0,0,0-.28054.47765c.032.21559.1816.28335.38625.29583a.17226.17226,0,0,1,.11582.12759.34446.34446,0,0,0,.36177.35116c.04983.00187.13315.0468.13452.08.013.29583.20025.40126.48689.42953l-8.14626,8.28909-1.1352,1.15516-2.33134,2.3722-2.49039.55756-.79141.85361,2.38259-.49619-.844.85618-2.233.46964-.85367.886L14.01225,9.375A41.05879,41.05879,0,0,1,19.13981,9.39126Z"/>
  <polygon class="cls-1" points="36.72 7.4 36.889 7.496 37.25 7.833 36.215 8.17 36.72 7.4"/>
  <polygon class="cls-2" points="39.655 9.216 40.499 5.153 36.522 6.323 37.64 7.353 37.128 7.906 38.022 8.742 38.536 8.186 39.655 9.216"/>
</svg>
